<?xml version="1.0" encoding="utf-8"?>
<!-- Generator: Adobe Illustrator 23.0.1, SVG Export Plug-In . SVG Version: 6.00 Build 0)  -->
<svg version="1.1" id="Layer_1" xmlns="http://www.w3.org/2000/svg" xmlns:xlink="http://www.w3.org/1999/xlink" x="0px" y="0px"
	 viewBox="0 0 174.6 172.5" style="enable-background:new 0 0 174.6 172.5;" xml:space="preserve">
<style type="text/css">
	.st0{display:none;}
	.st1{fill:#6A6B66;}
	.st2{clip-path:url(#SVGID_2_);}
	.st3{fill:none;stroke:#1E464A;stroke-miterlimit:10;}
	.st4{fill:#243347;}
	.st5{fill:#D3774B;}
	.st6{clip-path:url(#SVGID_4_);}
	.st7{fill:none;stroke:#A2553E;stroke-width:1.0152;stroke-miterlimit:10;}
</style>
<g class="st0">
	
		<image style="display:inline;overflow:visible;enable-background:new    ;" width="1501" height="1601" xlink:href="20A24F3.jpg"  transform="matrix(0.9994 0 0 0.9994 -1140.6223 -1128.7842)">
	</image>
</g>
<g id="Layer_3">
	<g>
		<g>
			<path class="st1" d="M158.7,9.4l-11.6,11.5L135.2,9.1h-1.8L121.5,21L109.6,9.1h-2.3L95.4,20.9L83.5,9.1h-1.8L69.8,20.9L58.2,9.4
				c-4,0.9-7.2,3.8-8.5,7.6l12.8,12.9L49.7,42.7l12.8,12.8l-13,13l13,13L49.7,94.4l12.8,12.8l-12.8,12.9c1.1,3.2,3.6,5.7,6.6,7
				l12.4-12.4l12.8,12.8l12.8-12.8l13,13l13-13l12.8,12.8l12.8-12.8l13,12.9c3.4-0.9,6.3-3.4,7.8-6.6l-13.8-13.8l12.8-12.8
				l-12.8-12.8l13-13l-13-13l12.8-12.8L152.9,30l13.8-13.8C165.3,12.8,162.3,10.3,158.7,9.4z"/>
		</g>
		<g>
			<g>
				<defs>
					<path id="SVGID_1_" d="M158.7,10.4l-11.6,11.5L135.2,10h-1.8l-11.9,11.9L109.6,10h-2.3L95.4,21.9L83.5,10.1h-1.8L69.8,21.9
						L58.2,10.4c-4,0.9-7.2,3.8-8.5,7.6l12.8,12.9L49.7,43.7l12.8,12.8l-13,13l13,13L49.7,95.4l12.8,12.8l-12.8,12.9
						c1.1,3.2,3.6,5.7,6.6,7l12.4-12.4l12.8,12.8l12.8-12.8l13,13l13-13l12.8,12.8l12.8-12.8l13,12.9c3.4-0.9,6.3-3.4,7.8-6.6
						l-13.8-13.8l12.8-12.8l-12.8-12.8l13-13l-13-13l12.8-12.8L152.9,31l13.8-13.8C165.3,13.8,162.3,11.3,158.7,10.4z"/>
				</defs>
				<clipPath id="SVGID_2_">
					<use xlink:href="#SVGID_1_"  style="overflow:visible;"/>
				</clipPath>
				<g class="st2">
					<line class="st3" x1="69.8" y1="1" x2="69.8" y2="129.9"/>
					<line class="st3" x1="79.4" y1="1" x2="79.4" y2="129.9"/>
					<line class="st3" x1="84.3" y1="1" x2="84.3" y2="129.9"/>
					<line class="st3" x1="89.1" y1="1" x2="89.1" y2="129.9"/>
					<line class="st3" x1="55.4" y1="7.6" x2="55.4" y2="129.9"/>
					<line class="st3" x1="60.2" y1="2.7" x2="60.2" y2="129.9"/>
					<line class="st3" x1="65" y1="1" x2="65" y2="129.9"/>
					<line class="st3" x1="74.6" y1="1" x2="74.6" y2="129.9"/>
					<line class="st3" x1="93.9" y1="1" x2="93.9" y2="129.9"/>
					<line class="st3" x1="98.7" y1="1" x2="98.7" y2="129.9"/>
					<line class="st3" x1="103.5" y1="1" x2="103.5" y2="129.9"/>
					<line class="st3" x1="108.3" y1="1" x2="108.3" y2="129.9"/>
					<line class="st3" x1="113.2" y1="1" x2="113.2" y2="129.9"/>
					<line class="st3" x1="118" y1="1" x2="118" y2="129.9"/>
					<line class="st3" x1="122.8" y1="1" x2="122.8" y2="129.9"/>
					<line class="st3" x1="127.6" y1="1" x2="127.6" y2="129.9"/>
					<line class="st3" x1="132.4" y1="1" x2="132.4" y2="129.9"/>
					<line class="st3" x1="137.2" y1="1" x2="137.2" y2="129.9"/>
					<line class="st3" x1="142" y1="1" x2="142" y2="129.9"/>
					<line class="st3" x1="146.9" y1="1" x2="146.9" y2="129.9"/>
					<line class="st3" x1="151.7" y1="1" x2="151.7" y2="129.9"/>
					<line class="st3" x1="156.5" y1="1" x2="156.5" y2="129.9"/>
					<line class="st3" x1="161.3" y1="1" x2="161.3" y2="129.9"/>
					<line class="st3" x1="166.1" y1="1" x2="166.1" y2="125.3"/>
				</g>
			</g>
		</g>
		<g>
			<g>
				<path class="st4" d="M157.8,8.5c-3.9,3.8-7.7,7.7-11.6,11.5c0.6,0,1.2,0,1.8,0c-2.4-2.4-4.9-4.9-7.3-7.3
					c-1.8-1.8-3.7-4.9-6.4-4.9c-2.6,0-4.4,2.9-6.1,4.6c-2.5,2.5-5.1,5.1-7.6,7.6c0.6,0,1.2,0,1.8,0c-2.7-2.7-5.3-5.3-8-8
					c-1.8-1.8-3.3-4.3-6-4.3s-4.2,2.5-6,4.3c-2.7,2.7-5.3,5.3-8,8c0.6,0,1.2,0,1.8,0c-2.4-2.4-4.9-4.9-7.3-7.3
					c-1.8-1.8-3.7-4.9-6.4-4.9c-2.6,0-4.4,2.9-6.1,4.6c-2.5,2.5-5.1,5.1-7.6,7.6c0.6,0,1.2,0,1.8,0c-3.9-3.8-7.7-7.7-11.6-11.5
					c-0.3-0.3-0.8-0.4-1.2-0.3c-4.4,1.3-7.5,4-9.3,8.2c-0.2,0.5-0.2,1.1,0.2,1.5c4.3,4.3,8.6,8.6,12.8,12.9c0-0.6,0-1.2,0-1.8
					c-4.3,4.3-8.5,8.5-12.8,12.8c-0.5,0.5-0.5,1.3,0,1.8c4.3,4.3,8.5,8.5,12.8,12.8c0-0.6,0-1.2,0-1.8c-4.3,4.3-8.7,8.7-13,13
					c-0.5,0.5-0.5,1.3,0,1.8c4.3,4.3,8.7,8.7,13,13c0-0.6,0-1.2,0-1.8c-4.3,4.3-8.5,8.5-12.8,12.8c-0.5,0.5-0.5,1.3,0,1.8
					c4.3,4.3,8.5,8.5,12.8,12.8c0-0.6,0-1.2,0-1.8c-4.3,4.3-8.6,8.6-12.8,12.9c-0.4,0.4-0.4,1-0.2,1.5c1.5,3.4,3.8,5.8,7.1,7.5
					c0.5,0.2,1.1,0.2,1.5-0.2c4.1-4.1,8.3-8.3,12.4-12.4c-0.6,0-1.2,0-1.8,0c4.3,4.3,8.5,8.5,12.8,12.8c0.5,0.5,1.3,0.5,1.8,0
					c4.3-4.3,8.5-8.5,12.8-12.8c-0.6,0-1.2,0-1.8,0c4.3,4.3,8.7,8.7,13,13c0.5,0.5,1.3,0.5,1.8,0c4.3-4.3,8.7-8.7,13-13
					c-0.6,0-1.2,0-1.8,0c4.3,4.3,8.5,8.5,12.8,12.8c0.5,0.5,1.3,0.5,1.8,0c4.3-4.3,8.5-8.5,12.8-12.8c-0.6,0-1.2,0-1.8,0
					c4.3,4.3,8.6,8.6,13,12.9c0.3,0.3,0.8,0.5,1.2,0.3c3.8-1.3,6.6-3.6,8.5-7.2c0.3-0.5,0.2-1.1-0.2-1.5c-4.6-4.6-9.2-9.2-13.8-13.8
					c0,0.6,0,1.2,0,1.8c4.3-4.3,8.5-8.5,12.8-12.8c0.5-0.5,0.5-1.3,0-1.8c-4.3-4.3-8.5-8.5-12.8-12.8c0,0.6,0,1.2,0,1.8
					c4.3-4.3,8.7-8.7,13-13c0.5-0.5,0.5-1.3,0-1.8c-4.3-4.3-8.7-8.7-13-13c0,0.6,0,1.2,0,1.8c4.3-4.3,8.5-8.5,12.8-12.8
					c0.5-0.5,0.5-1.3,0-1.8c-4.3-4.3-8.5-8.5-12.8-12.8c0,0.6,0,1.2,0,1.8c4.6-4.6,9.2-9.2,13.8-13.8c0.4-0.4,0.5-1,0.2-1.5
					c-2-3.7-4.9-6-8.9-7.3c-1.5-0.5-2.2,1.9-0.7,2.4c2.5,0.7,5.7,2.3,6.8,4.9c0.3,0.6,0.8-0.9,0,0.5c-1,1.7-3.3,3.3-4.7,4.7
					c-2.8,2.8-5.5,5.5-8.3,8.3c-0.5,0.5-0.5,1.3,0,1.8c4.3,4.3,8.5,8.5,12.8,12.8c0-0.6,0-1.2,0-1.8c-4.3,4.3-8.5,8.5-12.8,12.8
					c-0.5,0.5-0.5,1.3,0,1.8c4.3,4.3,8.7,8.7,13,13c0-0.6,0-1.2,0-1.8c-4.3,4.3-8.7,8.7-13,13c-0.5,0.5-0.5,1.3,0,1.8
					c4.3,4.3,8.5,8.5,12.8,12.8c0-0.6,0-1.2,0-1.8c-4.3,4.3-8.5,8.5-12.8,12.8c-0.5,0.5-0.5,1.3,0,1.8c2.3,2.3,4.6,4.6,6.9,6.9
					c1.7,1.7,3.3,3.3,5,5c1.8,1.8,2,1.2,0.4,2.5c-0.6,0.5-3.7,4.3-4.5,4.2c-0.3,0-0.8-0.9-1-1c-1.6-1-3-3-4.3-4.3
					c-2.5-2.5-5-5-7.5-7.5c-0.5-0.5-1.3-0.5-1.8,0c-4.3,4.3-8.5,8.5-12.8,12.8c0.6,0,1.2,0,1.8,0c-4.3-4.3-8.5-8.5-12.8-12.8
					c-0.5-0.5-1.3-0.5-1.8,0c-4.3,4.3-8.7,8.7-13,13c0.6,0,1.2,0,1.8,0c-4.3-4.3-8.7-8.7-13-13c-0.5-0.5-1.3-0.5-1.8,0
					c-4.3,4.3-8.5,8.5-12.8,12.8c0.6,0,1.2,0,1.8,0c-4.3-4.3-8.5-8.5-12.8-12.8c-0.5-0.5-1.3-0.5-1.8,0c-2.4,2.4-4.8,4.8-7.3,7.2
					c-1.3,1.3-2.6,2.9-4.1,4.1c-0.2,0.2-0.6,0.9-0.9,0.9c0.4-0.1-3-3.4-3.6-4c-1.6-1.5-1.5-1,0-2.5c1.4-1.4,2.8-2.8,4.2-4.2
					c2.4-2.4,4.7-4.7,7.1-7.1c0.5-0.5,0.5-1.3,0-1.8c-4.3-4.3-8.5-8.5-12.8-12.8c0,0.6,0,1.2,0,1.8c4.3-4.3,8.5-8.5,12.8-12.8
					c0.5-0.5,0.5-1.3,0-1.8c-4.3-4.3-8.7-8.7-13-13c0,0.6,0,1.2,0,1.8c4.3-4.3,8.7-8.7,13-13c0.5-0.5,0.5-1.3,0-1.8
					c-4.3-4.3-8.5-8.5-12.8-12.8c0,0.6,0,1.2,0,1.8c4.3-4.3,8.5-8.5,12.8-12.8c0.5-0.5,0.5-1.3,0-1.8c-2.1-2.1-4.3-4.3-6.4-6.4
					c-1.5-1.5-2.9-2.9-4.4-4.4C52,18,51,17.3,50.8,16.8c-0.3-1,0,0.5,0.6-0.7c1-2,4.5-5.6,6.3-4.9c1.2,0.4,2.8,2.8,3.8,3.8
					c2.4,2.4,4.8,4.8,7.2,7.1c0.5,0.5,1.3,0.5,1.8,0c2-2,4-4,5.9-5.9c1.4-1.4,2.9-2.9,4.3-4.3c0.4-0.4,0.8-0.8,1.2-1.2
					c0.8-0.7-0.5-0.1,0.5-0.1c0.9,0-0.3-0.7,0.5,0.1c0.4,0.4,0.8,0.8,1.2,1.2c1.3,1.3,2.7,2.7,4,4c2.1,2.1,4.2,4.2,6.3,6.3
					c0.5,0.5,1.3,0.5,1.8,0c2.2-2.2,4.4-4.4,6.6-6.6c1.2-1.2,2.4-2.4,3.7-3.6c0.4-0.4,0.9-1.1,1.4-1.4c0.5-0.3-1.5,0.2,0.5,0.2
					c1.8,0,0.1-0.4,0.5-0.2s0.9,0.8,1.2,1.2c1.3,1.3,2.6,2.6,3.9,3.9c2.2,2.2,4.4,4.4,6.6,6.6c0.5,0.5,1.3,0.5,1.8,0
					c2-2,4-4,5.9-5.9c1.4-1.4,2.9-2.9,4.3-4.3c0.4-0.4,0.8-0.8,1.2-1.2c0.8-0.7-0.5-0.1,0.5-0.1c0.9,0-0.3-0.7,0.5,0.1
					c0.4,0.4,0.8,0.8,1.2,1.2c1.3,1.3,2.7,2.7,4,4c2.1,2.1,4.2,4.2,6.3,6.3c0.5,0.5,1.3,0.5,1.8,0c3.9-3.8,7.7-7.7,11.6-11.5
					C160.7,9.1,158.9,7.4,157.8,8.5z"/>
			</g>
		</g>
		<path class="st5" d="M117.1,165.8h-95c-6.6,0-12-5.4-12-12v-95c0-6.6,5.4-12,12-12h95c6.6,0,12,5.4,12,12v95
			C129.1,160.4,123.7,165.8,117.1,165.8z"/>
		<g>
			<g>
				<defs>
					<path id="SVGID_3_" d="M117.1,169.5h-95c-6.6,0-12-5.4-12-12V58.9c0-6.6,5.4-12,12-12h95c6.6,0,12,5.4,12,12v98.6
						C129.1,164.1,123.7,169.5,117.1,169.5z"/>
				</defs>
				<clipPath id="SVGID_4_">
					<use xlink:href="#SVGID_3_"  style="overflow:visible;"/>
				</clipPath>
				<g class="st6">
					<line class="st7" x1="28.8" y1="46.9" x2="28.8" y2="164.9"/>
					<line class="st7" x1="38.4" y1="46.9" x2="38.4" y2="164.9"/>
					<line class="st7" x1="43.3" y1="46.9" x2="43.3" y2="164.9"/>
					<line class="st7" x1="48.1" y1="46.9" x2="48.1" y2="164.9"/>
					<line class="st7" x1="14.4" y1="51.1" x2="14.4" y2="162.9"/>
					<line class="st7" x1="19.2" y1="47.9" x2="19.2" y2="164.9"/>
					<line class="st7" x1="24" y1="46.9" x2="24" y2="164.9"/>
					<line class="st7" x1="33.6" y1="46.9" x2="33.6" y2="164.9"/>
					<line class="st7" x1="52.9" y1="46.9" x2="52.9" y2="164.9"/>
					<line class="st7" x1="57.7" y1="46.9" x2="57.7" y2="164.9"/>
					<line class="st7" x1="62.5" y1="46.9" x2="62.5" y2="164.9"/>
					<line class="st7" x1="67.3" y1="46.9" x2="67.3" y2="164.9"/>
					<line class="st7" x1="72.2" y1="46.9" x2="72.2" y2="164.9"/>
					<line class="st7" x1="77" y1="46.9" x2="77" y2="164.9"/>
					<line class="st7" x1="81.8" y1="46.9" x2="81.8" y2="164.9"/>
					<line class="st7" x1="86.6" y1="46.9" x2="86.6" y2="164.9"/>
					<line class="st7" x1="91.4" y1="46.9" x2="91.4" y2="164.9"/>
					<line class="st7" x1="96.2" y1="46.9" x2="96.2" y2="164.9"/>
					<line class="st7" x1="101" y1="46.9" x2="101" y2="164.9"/>
					<line class="st7" x1="105.9" y1="46.9" x2="105.9" y2="164.9"/>
					<line class="st7" x1="110.7" y1="46.9" x2="110.7" y2="164.9"/>
					<line class="st7" x1="115.5" y1="46.9" x2="115.5" y2="164.9"/>
					<line class="st7" x1="120.3" y1="46.9" x2="120.3" y2="164.9"/>
					<line class="st7" x1="125.1" y1="49.9" x2="125.1" y2="164.2"/>
				</g>
			</g>
		</g>
		<g>
			<g>
				<path class="st4" d="M117.1,164.6c-29.3,0-58.6,0-87.9,0c-5.6,0-12,0.8-15.8-4.5c-2.9-4.1-2.1-9.8-2.1-14.6c0-17.7,0-35.3,0-53
					c0-8.1,0-16.1,0-24.2c0-3.9-0.6-8.5,0.4-12.3c2.3-8.2,10-7.9,16.7-7.9c7.4,0,14.8,0,22.2,0c18.2,0,36.4,0,54.6,0
					c3.9,0,7.8-0.2,11.7,0c9,0.4,10.8,7.9,10.8,15.1c0,16.5,0,33.1,0,49.6c0,13.5,0.5,27.1,0,40.5
					C127.7,159.6,123.5,164.2,117.1,164.6c-1.6,0.1-1.6,2.6,0,2.5c17.1-0.9,13.2-22.2,13.2-33.8c0-19.8,0-39.6,0-59.4
					c0-4.9,0.2-9.9,0-14.8c-0.3-7.9-6.1-13.3-13.9-13.5c-15.4-0.4-30.9,0-46.3,0c-15.7,0-31.4-0.2-47.1,0C15.2,45.7,9.2,51,8.9,59
					c-0.2,4.7,0,9.5,0,14.2c0,19.8,0,39.5,0,59.3c0,11-4,32.9,11.9,34.6c4.2,0.5,8.6,0.1,12.8,0.1c9.2,0,18.4,0,27.6,0
					c17.5,0,35.1,0,52.6,0c1.1,0,2.2,0,3.3,0C118.7,167.1,118.7,164.6,117.1,164.6z"/>
			</g>
		</g>
	</g>
</g>
<g id="Layer_4">
</g>
</svg>
