<?xml version="1.0" encoding="utf-8"?>
<!-- Generator: Adobe Illustrator 23.0.1, SVG Export Plug-In . SVG Version: 6.00 Build 0)  -->
<svg version="1.1" id="Layer_1" xmlns="http://www.w3.org/2000/svg" xmlns:xlink="http://www.w3.org/1999/xlink" x="0px" y="0px"
	 viewBox="0 0 174.6 172.5" style="enable-background:new 0 0 174.6 172.5;" xml:space="preserve">
<style type="text/css">
	.st0{display:none;}
	.st1{fill:#B7C8A7;}
	.st2{fill:#243347;}
	.st3{fill:#121212;}
	.st4{fill:#F6D1BA;}
	
		.st5{fill:none;stroke:#243347;stroke-width:2;stroke-linecap:round;stroke-linejoin:round;stroke-miterlimit:10;stroke-dasharray:10,5;}
</style>
<g class="st0">
</g>
<g id="Layer_3">
</g>
<g id="Layer_4">
</g>
<g>
	<g>
		<path class="st1" d="M152.9,157.4H19.4c-7.4,0-13.4-6-13.4-13.4V51c0-7.4,6-13.4,13.4-13.4h133.4c7.4,0,13.4,6,13.4,13.4V144
			C166.2,151.3,160.2,157.4,152.9,157.4z"/>
	</g>
	<g>
		<g>
			<path class="st2" d="M153.2,155.9c-34.9,0-69.7,0-104.6,0c-7.8,0-15.5,0-23.3,0c-8.1,0-17-1.5-17.5-12c-0.8-15.6,0-31.3,0-47
				c0-10.8,0-21.6,0-32.4c0-5-0.9-10.9,0.2-16c2.2-9.5,10.8-9.5,18.3-9.5c7.8,0,15.5,0,23.3,0c22.4,0,44.7,0,67.2,0
				c8.9,0,17.9,0,26.7,0c4.1,0,9-0.7,13.1,0.4c9.9,2.8,8.8,12.6,8.8,20.5c0,9.9,0,19.9,0,29.7c0,17.7,0.6,35.7,0,53.4
				C165,150.2,160.4,155.6,153.2,155.9c-1.8,0.1-1.8,2.9,0,2.8c10-0.6,14.8-8.4,14.8-17.6c0-8.9,0-17.9,0-26.7
				c0-20.5,0.1-40.9,0-61.5c-0.1-9-5.4-16.2-14.8-16.6c-4.6-0.2-9.3,0-13.8,0c-22.8,0-45.5,0-68.3,0c-16.8,0-33.7-0.4-50.5,0
				C11.7,36.5,5.4,42.6,5,51.5c-0.2,6.8,0,13.8,0,20.6c0,22,0,44.1,0,66c0,7.7,0.4,15.4,8.6,19.2c4.5,2.1,10.2,1.3,14.9,1.3
				c40.5,0,81,0,121.5,0c1.1,0,2.2,0,3.3,0C155.1,158.7,155.1,155.9,153.2,155.9z"/>
		</g>
	</g>
	<g>
		<g>
			<path class="st2" d="M30,37.7c0,34.9,0,69.8,0,104.8c0,4.9,0,9.9,0,14.8c0,1.8,2.8,1.8,2.8,0c0-34.9,0-69.8,0-104.8
				c0-4.9,0-9.9,0-14.8C32.8,35.9,30,35.9,30,37.7L30,37.7z"/>
		</g>
	</g>
	<g>
		<g>
			<path class="st2" d="M54.7,37.7c0,34.9,0,69.8,0,104.8c0,4.9,0,9.9,0,14.8c0,1.8,2.8,1.8,2.8,0c0-34.9,0-69.8,0-104.8
				c0-4.9,0-9.9,0-14.8C57.5,35.9,54.7,35.9,54.7,37.7L54.7,37.7z"/>
		</g>
	</g>
	<g>
		<g>
			<path class="st2" d="M79.3,37.7c0,34.9,0,69.8,0,104.8c0,4.9,0,9.9,0,14.8c0,1.8,2.8,1.8,2.8,0c0-34.9,0-69.8,0-104.8
				c0-4.9,0-9.9,0-14.8C82.1,35.9,79.3,35.9,79.3,37.7L79.3,37.7z"/>
		</g>
	</g>
	<g>
		<g>
			<path class="st3" d="M103.9,37.7c0,34.9,0,69.8,0,104.8c0,4.9,0,9.9,0,14.8c0,1.8,2.8,1.8,2.8,0c0-34.9,0-69.8,0-104.8
				c0-4.9,0-9.9,0-14.8C106.7,35.9,103.9,35.9,103.9,37.7L103.9,37.7z"/>
		</g>
	</g>
	<g>
		<g>
			<path class="st3" d="M128.5,37.7c0,34.9,0,69.8,0,104.8c0,4.9,0,9.9,0,14.8c0,1.8,2.8,1.8,2.8,0c0-34.9,0-69.8,0-104.8
				c0-4.9,0-9.9,0-14.8C131.3,35.9,128.5,35.9,128.5,37.7L128.5,37.7z"/>
		</g>
	</g>
	<g>
		<g>
			<path class="st3" d="M153.2,37.7c0,34.9,0,69.8,0,104.8c0,4.9,0,9.9,0,14.8c0,1.8,2.8,1.8,2.8,0c0-34.9,0-69.8,0-104.8
				c0-4.9,0-9.9,0-14.8C156,35.9,153.2,35.9,153.2,37.7L153.2,37.7z"/>
		</g>
	</g>
	<g>
		<g>
			<g>
				<path class="st2" d="M6.4,135.5c46.9,0,93.6,0,140.5,0c6.6,0,13.3,0,19.9,0c1.8,0,1.8-2.8,0-2.8c-46.9,0-93.6,0-140.5,0
					c-6.6,0-13.3,0-19.9,0C4.6,132.7,4.6,135.5,6.4,135.5L6.4,135.5z"/>
			</g>
		</g>
		<g>
			<g>
				<path class="st2" d="M6.4,110.4c46.9,0,93.6,0,140.5,0c6.6,0,13.3,0,19.9,0c1.8,0,1.8-2.8,0-2.8c-46.9,0-93.6,0-140.5,0
					c-6.6,0-13.3,0-19.9,0C4.6,107.6,4.6,110.4,6.4,110.4L6.4,110.4z"/>
			</g>
		</g>
		<g>
			<g>
				<path class="st2" d="M6.4,85.3c46.9,0,93.6,0,140.5,0c6.6,0,13.3,0,19.9,0c1.8,0,1.8-2.8,0-2.8c-46.9,0-93.6,0-140.5,0
					c-6.6,0-13.3,0-19.9,0C4.6,82.5,4.6,85.3,6.4,85.3L6.4,85.3z"/>
			</g>
		</g>
		<g>
			<g>
				<path class="st2" d="M6.4,60.2c46.9,0,93.6,0,140.5,0c6.6,0,13.3,0,19.9,0c1.8,0,1.8-2.8,0-2.8c-46.9,0-93.6,0-140.5,0
					c-6.6,0-13.3,0-19.9,0C4.6,57.4,4.6,60.2,6.4,60.2L6.4,60.2z"/>
			</g>
		</g>
	</g>
	<path class="st4" d="M126.2,2.3l33.5,8.5c0,0-18,57.3,8.8,74.6l-7,84.9H89.8V47.8C89.8,47.8,117.4,48.9,126.2,2.3z"/>
	<path class="st5" d="M126.2,2.3l33.5,8.5c0,0-18,57.3,8.8,74.6l-7,84.9H89.8V47.8C89.8,47.8,117.4,48.9,126.2,2.3z"/>
</g>
</svg>
