<?xml version="1.0" encoding="utf-8"?>
<!-- Generator: Adobe Illustrator 23.0.1, SVG Export Plug-In . SVG Version: 6.00 Build 0)  -->
<svg version="1.1" id="Layer_1" xmlns="http://www.w3.org/2000/svg" xmlns:xlink="http://www.w3.org/1999/xlink" x="0px" y="0px"
	 viewBox="0 0 174.6 172.5" style="enable-background:new 0 0 174.6 172.5;" xml:space="preserve">
<style type="text/css">
	.st0{display:none;}
	.st1{fill:#B7C8A7;}
	.st2{fill:#243347;}
	.st3{fill:#121212;}
	.st4{fill:#F6D1BA;}
	
		.st5{fill:none;stroke:#243347;stroke-width:2;stroke-linecap:round;stroke-linejoin:round;stroke-miterlimit:10;stroke-dasharray:10,5;}
</style>
<g class="st0">
	
		<image style="display:inline;overflow:visible;enable-background:new    ;" width="1501" height="1601" xlink:href="3F3087DC.jpg"  transform="matrix(0.9994 0 0 0.9994 -1360.4521 -1128.7842)">
	</image>
</g>
<g id="Layer_3">
</g>
<g id="Layer_4">
</g>
<g>
	<g>
		<path class="st1" d="M146,149H26.4c-6.6,0-12-5.4-12-12V53.7c0-6.6,5.4-12,12-12H146c6.6,0,12,5.4,12,12V137
			C158,143.6,152.6,149,146,149z"/>
	</g>
	<g>
		<g>
			<path class="st2" d="M146.3,147.7c-31.3,0-62.5,0-93.8,0c-7,0-13.9,0-20.9,0c-7.3,0-15.2-1.3-15.7-10.8c-0.7-14,0-28.1,0-42.1
				c0-9.7,0-19.4,0-29c0-4.5-0.8-9.8,0.2-14.3c2-8.5,9.7-8.5,16.4-8.5c7,0,13.9,0,20.9,0c20.1,0,40.1,0,60.2,0c8,0,16,0,23.9,0
				c3.7,0,8.1-0.6,11.7,0.4c8.9,2.5,7.9,11.3,7.9,18.4c0,8.9,0,17.8,0,26.6c0,15.9,0.5,32,0,47.9
				C156.9,142.6,152.8,147.4,146.3,147.7c-1.6,0.1-1.6,2.6,0,2.5c9-0.5,13.3-7.5,13.3-15.8c0-8,0-16,0-23.9c0-18.4,0.1-36.7,0-55.1
				c-0.1-8.1-4.8-14.5-13.3-14.9c-4.1-0.2-8.3,0-12.4,0c-20.4,0-40.8,0-61.2,0c-15.1,0-30.2-0.4-45.3,0c-7.9,0.2-13.6,5.6-13.9,13.6
				c-0.2,6.1,0,12.4,0,18.5c0,19.7,0,39.5,0,59.2c0,6.9,0.4,13.8,7.7,17.2c4,1.9,9.1,1.2,13.4,1.2c36.3,0,72.6,0,108.9,0
				c1,0,2,0,3,0C148,150.2,148,147.7,146.3,147.7z"/>
		</g>
	</g>
	<g>
		<g>
			<path class="st2" d="M35.9,41.7c0,31.3,0,62.6,0,93.9c0,4.4,0,8.9,0,13.3c0,1.6,2.5,1.6,2.5,0c0-31.3,0-62.6,0-93.9
				c0-4.4,0-8.9,0-13.3C38.4,40.1,35.9,40.1,35.9,41.7L35.9,41.7z"/>
		</g>
	</g>
	<g>
		<g>
			<path class="st2" d="M58,41.7c0,31.3,0,62.6,0,93.9c0,4.4,0,8.9,0,13.3c0,1.6,2.5,1.6,2.5,0c0-31.3,0-62.6,0-93.9
				c0-4.4,0-8.9,0-13.3C60.5,40.1,58,40.1,58,41.7L58,41.7z"/>
		</g>
	</g>
	<g>
		<g>
			<path class="st2" d="M80.1,41.7c0,31.3,0,62.6,0,93.9c0,4.4,0,8.9,0,13.3c0,1.6,2.5,1.6,2.5,0c0-31.3,0-62.6,0-93.9
				c0-4.4,0-8.9,0-13.3C82.6,40.1,80.1,40.1,80.1,41.7L80.1,41.7z"/>
		</g>
	</g>
	<g>
		<g>
			<path class="st3" d="M102.1,41.7c0,31.3,0,62.6,0,93.9c0,4.4,0,8.9,0,13.3c0,1.6,2.5,1.6,2.5,0c0-31.3,0-62.6,0-93.9
				c0-4.4,0-8.9,0-13.3C104.6,40.1,102.1,40.1,102.1,41.7L102.1,41.7z"/>
		</g>
	</g>
	<g>
		<g>
			<path class="st3" d="M124.2,41.7c0,31.3,0,62.6,0,93.9c0,4.4,0,8.9,0,13.3c0,1.6,2.5,1.6,2.5,0c0-31.3,0-62.6,0-93.9
				c0-4.4,0-8.9,0-13.3C126.7,40.1,124.2,40.1,124.2,41.7L124.2,41.7z"/>
		</g>
	</g>
	<g>
		<g>
			<path class="st3" d="M146.3,41.7c0,31.3,0,62.6,0,93.9c0,4.4,0,8.9,0,13.3c0,1.6,2.5,1.6,2.5,0c0-31.3,0-62.6,0-93.9
				c0-4.4,0-8.9,0-13.3C148.8,40.1,146.3,40.1,146.3,41.7L146.3,41.7z"/>
		</g>
	</g>
	<g>
		<g>
			<g>
				<path class="st2" d="M14.7,129.4c42,0,83.9,0,125.9,0c5.9,0,11.9,0,17.8,0c1.6,0,1.6-2.5,0-2.5c-42,0-83.9,0-125.9,0
					c-5.9,0-11.9,0-17.8,0C13.1,126.9,13.1,129.4,14.7,129.4L14.7,129.4z"/>
			</g>
		</g>
		<g>
			<g>
				<path class="st2" d="M14.7,106.9c42,0,83.9,0,125.9,0c5.9,0,11.9,0,17.8,0c1.6,0,1.6-2.5,0-2.5c-42,0-83.9,0-125.9,0
					c-5.9,0-11.9,0-17.8,0C13.1,104.4,13.1,106.9,14.7,106.9L14.7,106.9z"/>
			</g>
		</g>
		<g>
			<g>
				<path class="st2" d="M14.7,84.4c42,0,83.9,0,125.9,0c5.9,0,11.9,0,17.8,0c1.6,0,1.6-2.5,0-2.5c-42,0-83.9,0-125.9,0
					c-5.9,0-11.9,0-17.8,0C13.1,81.9,13.1,84.4,14.7,84.4L14.7,84.4z"/>
			</g>
		</g>
		<g>
			<g>
				<path class="st2" d="M14.7,61.9c42,0,83.9,0,125.9,0c5.9,0,11.9,0,17.8,0c1.6,0,1.6-2.5,0-2.5c-42,0-83.9,0-125.9,0
					c-5.9,0-11.9,0-17.8,0C13.1,59.4,13.1,61.9,14.7,61.9L14.7,61.9z"/>
			</g>
		</g>
	</g>
	<path class="st4" d="M122.1,10l30,7.6c0,0-16.1,51.4,7.9,66.9l-6.3,76.1H89.5V50.8C89.5,50.8,114.2,51.8,122.1,10z"/>
	<path class="st5" d="M122.1,10l30,7.6c0,0-16.1,51.4,7.9,66.9l-6.3,76.1H89.5V50.8C89.5,50.8,114.2,51.8,122.1,10z"/>
</g>
</svg>
