<?xml version="1.0" encoding="utf-8"?>
<!-- Generator: Adobe Illustrator 23.0.2, SVG Export Plug-In . SVG Version: 6.00 Build 0)  -->
<svg version="1.1" id="Layer_1" xmlns="http://www.w3.org/2000/svg" xmlns:xlink="http://www.w3.org/1999/xlink" x="0px" y="0px"
	 viewBox="0 0 884.3 102.5" style="enable-background:new 0 0 884.3 102.5;" xml:space="preserve">
<style type="text/css">
	.st0{fill:#243347;}
	.st1{fill:#F7A28B;}
	.st2{fill:#C6E5CB;}
</style>
<g>
	<g>
		<g>
			<path class="st0" d="M311.1,27.2c1.7,0,5.3,1.1,5.6,4.2c0.1,0.7-1.9,8.1-2.6,10.1c-0.7,2-2.2,6.4-4.6,13.2s-4.1,11.8-5.3,14.9
				c-3.2,8.8-6.7,16.7-10.3,23.8c-1.2,2.1-3.3,3.8-6.3,5c-3.1,1.2-6.6,1.7-10.7,1.7c-4,0-8-0.6-12-1.8c-3.9-1.2-7.7-2.7-9-5.2
				s-2.8-4.3-4.8-9.5c-2.1-5.1-2.4-10.5-2.8-11.3c-4.2,11.4-7,18.3-8.2,20.7c-1.3,2.4-3.5,4.2-6.5,5.3c-3.1,1.2-6.6,1.7-10.7,1.7
				c-4,0-8-0.6-12-1.8c-3.9-1.2-9.3-5.5-10.5-7.8c-7-13.5-11.3-27.4-18.5-46.7c-0.7-2.1-1.1-3.8-1.1-5.2c0-2.9,1.6-4.3,4.8-4.3h26
				c3,0,5.2,0.4,6.8,1.2c1.6,0.8,2.6,2.4,3.1,4.8l5.6,21.6c0.2,1,0.9,1.5,2,1.5s1.8-0.5,2.2-1.5l10.4-21.9c1.5-3.8,4-5.7,7.6-5.7
				h13.4c2.8,0,4.9,0.4,6.4,1.2c1.4,0.8,2.6,2.4,3.5,4.8l8.6,21.7c0.3,1,1,1.5,2.1,1.5s1.8-0.5,2.1-1.5l9.7-24.5
				c0.5-1.2,1.1-2,1.7-2.4c0.6-0.4,1.5-0.5,2.5-0.4L311.1,27.2z"/>
		</g>
		<g>
			<path class="st1" d="M275.4,96.3c-4.1,0-8.3-0.6-12.3-1.8c-4.2-1.3-7.1-3.4-8.6-6.1c-1.3-2.6-3.1-6.4-5.1-11.6
				c-1.1-2.7-1.9-4.8-2.6-6.3c-3.7,9.9-6.1,15.9-7.3,18.2c-1.4,2.6-3.8,4.6-7.1,5.9c-3.2,1.2-6.9,1.8-11.1,1.8
				c-4.1,0-8.3-0.6-12.3-1.8c-4.2-1.3-7-3.2-8.3-5.7c-7-13.5-14.2-30.2-21.4-49.5c-0.8-2.2-1.2-4.1-1.2-5.6c0-3.5,2.1-5.5,6-5.5h26
				c3.2,0,5.6,0.4,7.3,1.3c1.9,1,3.1,2.8,3.7,5.6l5.6,21.5c0.1,0.4,0.2,0.6,0.9,0.6s0.9-0.3,1.1-0.7v-0.1l10.4-22
				c1.6-4.2,4.5-6.4,8.6-6.4h13.4c3,0,5.3,0.4,6.9,1.3c1.7,0.9,3.1,2.7,4.1,5.4l8.5,21.7c0.2,0.6,0.5,0.8,1,0.8c0.6,0,0.8-0.2,1-0.7
				l9.7-24.6c0.6-1.5,1.3-2.5,2.1-3c0.7-0.4,1.6-0.6,2.6-0.6c0.2,0,0.4,0,0.6,0h13.2c1.1,0,3.6,0.4,3.6,4.2c0,0.5-0.1,1.5-1.1,4.3
				c-0.7,2-2.2,6.4-4.6,13.2c-2.3,6.8-4.1,11.8-5.3,15c-3.2,8.8-6.7,16.8-10.3,23.9c-1.3,2.4-3.6,4.3-6.9,5.5
				C283.3,95.7,279.6,96.3,275.4,96.3z"/>
			<path class="st0" d="M261.3,29.3c2.8,0,4.9,0.4,6.4,1.2c1.4,0.8,2.6,2.4,3.5,4.8l8.6,21.7c0.3,1,1,1.5,2.1,1.5s1.8-0.5,2.1-1.5
				l9.7-24.5c0.5-1.2,1.1-2,1.7-2.4c0.5-0.3,1.2-0.5,2-0.5c0.2,0,0.4,0,0.6,0h13.3c1.7,0,2.5,1,2.5,3.1c0,0.7-0.4,2-1.1,4
				c-0.7,2-2.2,6.4-4.6,13.2c-2.4,6.8-4.1,11.8-5.3,14.9c-3.2,8.8-6.7,16.7-10.3,23.8c-1.2,2.1-3.3,3.8-6.3,5
				c-3.1,1.2-6.6,1.7-10.7,1.7c-4,0-8-0.6-12-1.8c-3.9-1.2-6.5-3.1-7.9-5.6c-1.3-2.5-3-6.3-5.1-11.5c-2.1-5.1-3.3-8.1-3.7-8.9
				c-4.2,11.4-7,18.3-8.2,20.7c-1.3,2.4-3.5,4.2-6.5,5.3c-3.1,1.2-6.6,1.7-10.7,1.7c-4,0-8-0.6-12-1.8c-3.9-1.2-6.5-2.9-7.6-5.1
				c-7-13.5-14.1-30-21.3-49.3c-0.7-2.1-1.1-3.8-1.1-5.2c0-2.9,1.6-4.3,4.8-4.3h26c3,0,5.2,0.4,6.8,1.2c1.6,0.8,2.6,2.4,3.1,4.8
				l5.6,21.6c0.2,1,0.9,1.5,2,1.5s1.8-0.5,2.2-1.5l10.4-21.9c1.5-3.8,4-5.7,7.6-5.7h13.4 M261.3,27h-13.4c-3.1,0-7.3,1.2-9.7,7.1
				L227.8,56l0,0l-5.5-21.1c-0.6-3.1-2.1-5.2-4.3-6.3c-1.9-1-4.5-1.4-7.8-1.4h-26c-4.5,0-7.1,2.5-7.1,6.6c0,1.7,0.4,3.6,1.3,6
				c7.2,19.4,14.4,36,21.4,49.6c1.4,2.8,4.5,4.9,9,6.3c4.1,1.3,8.4,1.9,12.6,1.9c4.3,0,8.2-0.6,11.5-1.9c3.6-1.4,6.2-3.5,7.7-6.4
				c1.1-2.1,3.2-7.2,6.4-15.6c0.4,1,0.9,2.2,1.5,3.6c2.1,5.2,3.8,9.1,5.2,11.7c1.6,3.1,4.7,5.3,9.2,6.7c4.1,1.3,8.4,1.9,12.6,1.9
				c4.3,0,8.2-0.6,11.5-1.9c3.6-1.4,6.1-3.4,7.5-6c3.7-7.2,7.2-15.3,10.4-24.1c1.2-3.1,2.9-8.2,5.3-15c2.4-6.9,3.9-11.2,4.6-13.2
				c1-3,1.2-4.1,1.2-4.7c0-4-2.5-5.4-4.8-5.4H298c-0.2,0-0.4,0-0.6,0c-1.2,0-2.3,0.3-3.2,0.8c-1.1,0.6-1.9,1.8-2.6,3.5L282,56.1
				l-8.6-21.7c-1.1-2.9-2.6-4.9-4.6-5.9C267,27.4,264.5,27,261.3,27L261.3,27z"/>
		</g>
	</g>
	<g>
		<g>
			<path class="st0" d="M581.4,7.3h23.8c2.7,0,4.5,0.6,5.5,1.9c0.9,1.3,1.5,3.3,1.7,6.1c0.5,9.9,0.7,23.6,0.7,41.1
				s0.2,28.2-0.5,34.8c-0.1,1.3-1.3,3.9-2.5,5s-3.2,1.7-6.1,1.9c-2.9,0.2-6.4,0.3-10.3,0.3c-4,0-7.5-0.1-10.7-0.2
				c-5.4-0.4-11.2-2.9-12-7.5c-1.3-7.1,2.4-18,2.4-36.3s0.3-31.3,1-39c0.2-2.8,0.8-4.9,1.7-6.1C576.9,7.9,578.7,7.3,581.4,7.3z"/>
		</g>
		<g>
			<path class="st1" d="M592.2,94.5c-3.9,0-7.6-0.1-10.7-0.2c-6-0.5-9.2-2.7-9.5-6.6c-0.8-7.1-1.2-20.1-1.2-38.3
				c0-18.3,0.3-31.4,1-39.1c0.3-3,0.9-5.2,1.9-6.7c1.1-1.6,3.2-2.4,6.3-2.4h23.8c3.1,0,5.3,0.8,6.4,2.4c1,1.5,1.7,3.7,1.9,6.7
				c0.5,9.9,0.7,23.8,0.7,41.2c0,17.4-0.3,29.6-1,36.2c-0.2,1.6-1,3.1-2.3,4.3c-1.4,1.3-3.6,2-6.8,2.2
				C599.6,94.4,596.1,94.5,592.2,94.5z"/>
			<path class="st0" d="M603.7,2.3c2.7,0,4.5,0.6,5.5,1.9c0.9,1.3,1.5,3.3,1.7,6.1c0.5,9.9,0.7,23.6,0.7,41.1s-0.3,29.5-1,36.1
				c-0.2,1.3-0.8,2.5-2,3.6s-3.2,1.7-6.1,1.9c-2.9,0.2-6.4,0.3-10.3,0.3c-4,0-7.5-0.1-10.7-0.2c-5.4-0.4-8.2-2.3-8.4-5.6
				c-0.8-7.2-1.2-19.9-1.2-38.2c0-18.3,0.3-31.3,1-39c0.2-2.8,0.8-4.9,1.7-6.1c0.9-1.3,2.7-1.9,5.4-1.9L603.7,2.3 M603.7,0h-23.8
				c-3.5,0-6,1-7.3,2.9c-1.1,1.6-1.8,4-2.1,7.2c-0.7,7.7-1,20.9-1,39.2c0,18.3,0.4,31.2,1.2,38.5c0.3,3.2,2.3,7,10.5,7.6l0,0l0,0
				c3.2,0.2,6.8,0.3,10.8,0.3s7.5-0.1,10.5-0.3c3.5-0.2,6-1.1,7.5-2.5c1.6-1.4,2.5-3.1,2.7-5l0,0l0,0c0.7-6.7,1-18.9,1-36.4
				c0-17.4-0.3-31.3-0.7-41.2l0,0l0,0c-0.3-3.2-1-5.6-2.1-7.3C609.6,0.9,607.2,0,603.7,0L603.7,0z"/>
		</g>
	</g>
	<g>
		<g>
			<path class="st0" d="M776.6,50.6c-3.9,0-6.8,1.3-8.7,3.8c-1.9,2.6-2.9,5.7-2.9,9.5s1.1,7.1,3.3,9.8c2.2,2.7,5.8,4.1,10.8,4.1
				c1.6,0,3.9-0.4,6.9-1.2c3.1-0.8,5.2-1.2,6.4-1.2c2.9,0,4.8,2.7,5,8.2c0,2.4-0.5,4.7-0.8,6.8c-0.3,2.1-1.8,3.6-4.6,4.5
				c-8.3,2.6-15.6,3.8-21.9,3.8s-11.5-0.2-15.5-0.7s-8.1-1.4-12.1-2.8c-4.1-1.4-7.5-3.3-10.2-5.6c-2.7-2.3-4.9-5.4-6.6-9.4
				c-1.7-3.9-2.5-8.9-2.5-14.9s1.3-11.3,3.9-16.1c2.6-4.7,6.2-8.3,10.7-10.8c8.6-4.6,19.3-6.9,32.2-6.9c6.9,0,14,1.1,21.2,3.3
				c3.1,1,5.3,1.6,5.3,7.3c0,5.7-2.1,11.2-5,11.2c-1.2,0-3.5-0.5-6.8-1.4C781.6,51.1,778.9,50.6,776.6,50.6z"/>
		</g>
		<g>
			<path class="st1" d="M768.7,94.9c-6.3,0-11.6-0.2-15.6-0.7c-4.1-0.5-8.2-1.4-12.4-2.8c-4.2-1.4-7.8-3.4-10.5-5.8
				c-2.8-2.4-5.1-5.7-6.9-9.8c-1.7-4-2.6-9.2-2.6-15.3c0-6.2,1.4-11.7,4-16.6c2.7-4.9,6.5-8.7,11.2-11.2c8.7-4.7,19.8-7.1,32.8-7.1
				c7,0,14.3,1.1,21.5,3.4c3.6,1.2,5.4,4.9,5.4,11.1c0,6.4-1.8,9.6-5.5,9.6c-1.4,0-3.7-0.5-7.1-1.5c-3.2-0.9-5.8-1.4-7.9-1.4
				c-3.5,0-6.1,1.1-7.8,3.4c-1.7,2.3-2.6,5.3-2.6,8.9c0,3.5,1,6.6,3.1,9.1c2,2.4,5.3,3.7,9.9,3.7c1.5,0,3.7-0.4,6.6-1.2
				c3.2-0.9,5.4-1.3,6.7-1.3c3.6,0,5.5,3.2,5.7,9.4c0,2.5-0.1,4.8-0.4,6.9c-0.4,2.5-2.2,4.3-5.4,5.4
				C782.6,93.6,775.1,94.9,768.7,94.9z"/>
			<path class="st0" d="M768.7,26.7c6.9,0,14,1.1,21.2,3.3c3.1,1,4.6,4.3,4.6,10s-1.4,8.5-4.3,8.5c-1.2,0-3.5-0.5-6.8-1.4
				s-6-1.4-8.2-1.4c-3.9,0-6.8,1.3-8.7,3.8c-1.9,2.6-2.9,5.7-2.9,9.5s1.1,7.1,3.3,9.8c2.2,2.7,5.8,4.1,10.8,4.1
				c1.6,0,3.9-0.4,6.9-1.2c3.1-0.8,5.2-1.2,6.4-1.2c2.9,0,4.4,2.8,4.6,8.3c0,2.4-0.1,4.6-0.4,6.7s-1.8,3.6-4.6,4.5
				c-8.3,2.6-15.6,3.8-21.9,3.8s-11.5-0.2-15.5-0.7s-8.1-1.4-12.1-2.8c-4.1-1.4-7.5-3.3-10.2-5.6c-2.7-2.3-4.9-5.4-6.6-9.4
				c-1.7-3.9-2.5-8.9-2.5-14.9s1.3-11.3,3.9-16.1c2.6-4.7,6.2-8.3,10.7-10.8C745,29,755.8,26.7,768.7,26.7 M768.7,24.4
				c-13.2,0-24.4,2.4-33.3,7.2c-4.9,2.7-8.8,6.6-11.6,11.7c-2.8,5-4.2,10.8-4.2,17.2c0,6.3,0.9,11.6,2.7,15.8
				c1.8,4.2,4.2,7.7,7.2,10.2c2.9,2.5,6.6,4.5,10.9,6c4.2,1.5,8.5,2.4,12.6,2.9s9.4,0.7,15.8,0.7c6.5,0,14.1-1.3,22.6-3.9
				c4.6-1.5,6-4.3,6.2-6.3c0.3-2.2,0.5-4.5,0.5-7l0,0l0,0c-0.3-8.7-3.9-10.5-6.9-10.5c-1.5,0-3.7,0.4-7,1.3c-3.5,1-5.4,1.2-6.3,1.2
				c-4.3,0-7.2-1.1-9-3.2c-1.9-2.3-2.8-5.1-2.8-8.3c0-3.3,0.8-6,2.4-8.2c1.5-2,3.7-2.9,6.8-2.9c2,0,4.6,0.4,7.6,1.3
				c3.5,1,5.9,1.5,7.4,1.5c3,0,6.6-1.9,6.6-10.8c0-6.7-2.1-10.8-6.2-12.2C783.2,25.5,775.8,24.4,768.7,24.4L768.7,24.4z"/>
		</g>
	</g>
	<g>
		<g>
			<path class="st0" d="M818.2,53.7c0-1.3-0.9-2-2.7-2c-3.2,0-8.2-3.9-8.7-6.1c-0.3-1.1,2.5,0.1,2.5-2.1s0.3-3.8,0.9-4.8
				c0.6-0.9,1.8-1.7,3.6-2.1c1.8-0.5,3.4-1.2,4.8-2.4c1.4-1.1,4.4-3.6,8.9-7.4s7.6-6.3,9.4-7.4c1.8-1.2,4-1.7,6.6-1.7h6.2
				c2.9,0,4.8,0.4,5.8,1.1s1.5,1.8,1.5,3.3v11.8c0,1.7,0.7,2.6,2.2,2.6h13.3c2.1,0,3.7,0.5,4.6,1.4s1.9,1.3,1.9,4.6c0,3.3-1,7-2,8
				c-1,0.9-2.5,1.4-4.5,1.4h-12.9c-1.2,0-1.9,0.3-2.2,0.9c-0.3,0.6-0.5,1.4-0.5,2.5v14.9c0.2,2.8,1.2,5.2,3.2,7.1
				c1.9,1.9,4.7,2.9,8.2,2.9c1.7,0,3.9-0.5,6.4-1.4c2.6-0.9,4.3-1.4,5.2-1.4c2.2,0,3.9,0.9,3.9,7.5c0,4.8-1.8,10.1-4.4,11.1
				c-2.6,0.9-6.4,1.7-11.2,2.2c-4.8,0.6-9.6,0.9-14.4,0.9s-9.4-0.4-13.7-1.2c-4.3-0.8-8.3-2.2-11.8-4.2c-6.9-4-14.4-12.8-10.4-23.2
				V53.7L818.2,53.7L818.2,53.7z"/>
		</g>
		<g>
			<path class="st1" d="M852.6,94.9c-4.9,0-9.5-0.4-13.9-1.2c-4.4-0.8-8.5-2.2-12.2-4.3c-7.3-4.3-11-12.4-11-24.2V48.7
				c0-0.3,0-0.8-1.6-0.8c-4.7,0-6.3-2.2-6.8-4.1c-0.4-1.1-0.5-2.9-0.5-5.3c0-2.5,0.4-4.2,1.1-5.4c0.8-1.2,2.2-2.1,4.3-2.6
				c1.6-0.4,3.1-1.1,4.4-2.2c1.4-1.1,4.4-3.6,8.9-7.3c4.6-3.9,7.7-6.3,9.5-7.5c2-1.3,4.4-1.9,7.3-1.9h6.2c3.2,0,5.3,0.4,6.5,1.3
				c1.3,0.9,2,2.3,2,4.2v11.8c0,1.5,0.6,1.5,1.1,1.5h13.3c2.4,0,4.3,0.6,5.4,1.7c1.2,1.2,1.8,3.4,1.8,7.1s-0.6,5.9-1.9,7.1
				c-1.2,1.1-3,1.7-5.2,1.7h-12.9c-0.8,0-1.2,0.2-1.2,0.3c-0.2,0.3-0.3,0.8-0.3,1.9v14.9c0.1,2.5,1.1,4.5,2.8,6.2
				c1.7,1.7,4.2,2.5,7.4,2.5c1.6,0,3.6-0.5,6-1.4c3.6-1.3,4.9-1.5,5.6-1.5c4,0,4.5,6.3,4.5,11.1c0,5.3-1.5,8.6-4.6,9.7
				c-2.7,0.9-6.6,1.7-11.4,2.3C862.3,94.6,857.4,94.9,852.6,94.9z"/>
			<path class="st0" d="M848.2,12.8c2.9,0,4.8,0.4,5.8,1.1s1.5,1.8,1.5,3.3V29c0,1.7,0.7,2.6,2.2,2.6H871c2.1,0,3.7,0.5,4.6,1.4
				s1.4,3,1.4,6.3s-0.5,5.4-1.5,6.3S873,47,871,47h-12.9c-1.2,0-1.9,0.3-2.2,0.9c-0.3,0.6-0.5,1.4-0.5,2.5v14.9
				c0.2,2.8,1.2,5.2,3.2,7.1c1.9,1.9,4.7,2.9,8.2,2.9c1.7,0,3.9-0.5,6.4-1.4c2.6-0.9,4.3-1.4,5.2-1.4c2.2,0,3.3,3.3,3.3,9.9
				c0,4.8-1.3,7.7-3.8,8.7c-2.6,0.9-6.4,1.7-11.2,2.2c-4.8,0.6-9.6,0.9-14.4,0.9s-9.4-0.4-13.7-1.2c-4.3-0.8-8.3-2.2-11.8-4.2
				c-6.9-4-10.4-11.8-10.4-23.2V49.1c0-1.3-0.9-2-2.7-2c-3.2,0-5.1-1.1-5.7-3.2c-0.3-1.1-0.5-2.7-0.5-5c0-2.2,0.3-3.8,0.9-4.8
				c0.6-0.9,1.8-1.7,3.6-2.1c1.8-0.5,3.4-1.2,4.8-2.4c1.4-1.1,4.4-3.6,8.9-7.4s7.6-6.3,9.4-7.4c1.8-1.2,4-1.7,6.6-1.7h6.5
				 M848.2,10.5H842c-3.1,0-5.7,0.7-7.9,2.1c-1.9,1.2-5,3.7-9.6,7.6c-4.4,3.8-7.4,6.2-8.8,7.3c-1.2,0.9-2.5,1.6-4,1.9
				c-2.3,0.6-4,1.6-4.9,3.1c-0.9,1.3-1.3,3.3-1.3,6c0,2.5,0.2,4.3,0.6,5.6c0.5,1.8,2.2,4.9,7.9,4.9c0.2,0,0.3,0,0.4,0v16.1
				c0,12.2,3.9,20.7,11.6,25.2c3.8,2.1,8,3.6,12.6,4.4c4.4,0.8,9.2,1.2,14.1,1.2s9.8-0.3,14.7-0.9c5-0.6,8.8-1.4,11.6-2.3l0,0l0,0
				c3.5-1.4,5.3-5,5.3-10.8c0-3.3,0-12.2-5.6-12.2c-0.8,0-2.3,0.2-6,1.6c-2.3,0.9-4.2,1.3-5.6,1.3c-3,0-5.1-0.7-6.6-2.2
				s-2.3-3.3-2.5-5.5V50.1c0-0.5,0-0.8,0.1-1c0.1,0,0.2,0,0.3,0h12.9c2.6,0,4.6-0.7,6-2c1.5-1.4,2.2-3.9,2.2-8c0-4-0.7-6.5-2.1-7.9
				c-1.4-1.3-3.5-2-6.2-2H858c0-0.1,0-0.2,0-0.3V17.1c0-2.8-1.3-4.4-2.5-5.2C854,11,851.7,10.5,848.2,10.5L848.2,10.5z"/>
		</g>
	</g>
	<g>
		<g>
			<path class="st0" d="M422.6,80.1c0-2.3-1-4.1-2.9-5.5c-1.9-1.3-4.3-2.3-7.1-3s-4.9-1.5-8-2.7c-3.2-1.3-9.6-5.4-10.9-8.5
				c0,0-1.8-1.9-1.8-5.8c0-15.4,14.2-22.9,38.1-22.9c10.2,0,18.5,1.7,24.7,5.2c2,1.1,4.4,0.3,5.2,1.3s0.5,0.7,0.7,3.1
				c0.4,3.7-1.8,8.1-2.7,9.3c-1,1.2-2.6,1.4-3.5,1.2c-1.3-0.2-1.6-0.6-4.8-2.4c-3.2-1.9-6.5-2.8-9.9-2.9c-2.7,0-4.1,1.4-4.1,4.1
				c0,1.8,0.9,3.3,2.9,4.3c1.9,1.1,4.2,2,6.9,2.8s5.5,1.7,8.2,2.9c2.7,1.1,10.2,6.4,10.2,6.4l0.4,5.4c0,16.3-12.7,26.7-36.6,26.7
				c-11.7,0-21.2-1.7-28.5-5.1c-2.2-0.9-3.7-1.9-4.8-2.8c-1.6-1.2-4.7-3.8-4.7-6.3s3.7-3.2,4.7-4.3c1-1.1,1.9-1.6,2.6-1.6
				c0.7,0,3.1,0.9,7.1,2.7c4,1.8,8.1,2.7,12.3,2.7C420.5,84.5,422.6,83,422.6,80.1z"/>
		</g>
		<g>
			<path class="st1" d="M426.1,95.3c-11.8,0-21.5-1.7-29-5.2c-2.3-0.9-4-1.9-5.1-3c-1.2-1.2-1.8-3.2-1.8-6c0-2.9,0.6-4.9,1.9-6.2
				c1.3-1.3,2.4-2,3.4-2c0.7,0,2.1,0.3,7.6,2.8c3.9,1.7,7.8,2.6,11.8,2.6c5,0,5-2.2,5-3.2c0-1.9-0.8-3.4-2.4-4.5
				c-1.8-1.2-4.1-2.2-6.7-2.9c-2.8-0.7-5.6-1.5-8.5-2.5c-3-1-5.6-2.8-7.6-5.3c-2.1-2.6-3.2-5.9-3.2-10.1c0-16.1,12.4-24.2,37-24.2
				c10.4,0,18.9,1.8,25.2,5.4c2.1,1.1,3.6,2.2,4.5,3.3c1,1.2,1.5,3.1,1.5,5.8c0,2.6-0.6,4.7-1.7,6.1c-1.2,1.5-2.4,2.2-3.8,2.2
				c-0.8,0-2.3-0.3-6.8-2.9c-3-1.8-6.1-2.7-9.3-2.8c-2.1,0-2.9,0.9-2.9,2.9c0,1.4,0.7,2.5,2.3,3.3c1.8,1,4.1,1.9,6.7,2.7
				c2.8,0.8,5.6,1.8,8.3,2.9c2.9,1.2,5.4,3.2,7.4,6S463,66.8,463,71C463.1,87.1,450.7,95.3,426.1,95.3z"/>
			<path class="st0" d="M428.5,26.8c10.2,0,18.5,1.7,24.7,5.2c2,1.1,3.4,2.1,4.2,3c0.8,1,1.2,2.6,1.2,5s-0.5,4.2-1.4,5.4
				c-1,1.2-1.9,1.8-2.9,1.8s-3-0.9-6.2-2.8s-6.5-2.8-9.9-2.9c-2.7,0-4.1,1.4-4.1,4.1c0,1.8,0.9,3.3,2.9,4.3c1.9,1.1,4.2,2,6.9,2.8
				s5.5,1.7,8.2,2.9c2.7,1.1,5,3,6.9,5.6s2.9,5.9,2.9,9.9c0,15.4-11.9,23.1-35.8,23.1c-11.7,0-21.2-1.7-28.5-5.1
				c-2.2-0.9-3.8-1.8-4.8-2.8c-1-0.9-1.5-2.7-1.5-5.2s0.5-4.3,1.5-5.4s1.9-1.6,2.6-1.6c0.7,0,3.1,0.9,7.1,2.7
				c4,1.8,8.1,2.7,12.3,2.7c4.1,0,6.2-1.4,6.2-4.3c0-2.3-1-4.1-2.9-5.5c-1.9-1.3-4.3-2.3-7.1-3s-5.6-1.5-8.4-2.5
				c-2.8-0.9-5.2-2.6-7.1-5c-1.9-2.4-2.9-5.5-2.9-9.4C392.7,34.5,404.6,26.8,428.5,26.8 M428.5,24.5c-12.3,0-21.8,2.1-28.1,6.1
				c-6.6,4.3-10,10.7-10,19.2c0,4.4,1.2,8.1,3.4,10.8c2.2,2.7,5,4.6,8.2,5.7c2.9,1,5.7,1.8,8.5,2.5c2.5,0.6,4.6,1.5,6.3,2.7
				c1.3,0.9,1.9,2,1.9,3.6c0,0.7,0,2-3.9,2c-3.8,0-7.6-0.8-11.3-2.5c-6-2.7-7.3-2.9-8.1-2.9c-1.4,0-2.7,0.7-4.3,2.3
				c-1.5,1.5-2.2,3.8-2.2,7s0.7,5.4,2.2,6.9c1.2,1.2,3,2.2,5.5,3.2c7.6,3.5,17.5,5.3,29.4,5.3c12.3,0,21.8-2.1,28.1-6.1
				c6.6-4.3,10-10.7,10-19.2c0-4.4-1.1-8.2-3.3-11.2c-2.1-2.9-4.8-5.1-7.9-6.4c-2.8-1.1-5.6-2.1-8.4-2.9c-2.5-0.7-4.7-1.6-6.4-2.6
				c-1.5-0.8-1.7-1.7-1.7-2.3c0-1.4,0.3-1.8,1.8-1.8c3,0.1,5.9,1,8.7,2.6c4.7,2.7,6.3,3.1,7.4,3.1c1.7,0,3.2-0.9,4.7-2.7
				c1.3-1.6,1.9-3.9,1.9-6.8c0-3-0.6-5.1-1.8-6.5c-1-1.2-2.6-2.3-4.9-3.6C447.8,26.4,439.1,24.5,428.5,24.5L428.5,24.5z"/>
		</g>
	</g>
	<g>
		<g>
			<path class="st0" d="M495.5,37.1c3.8-1.9,7.7-3.2,11.7-4s9-1.2,14.9-1.2s11.5,0.7,16.9,2.2c5.4,1.4,11.3,2.6,13.9,5.1
				c4.6,4.5,6.1,7.4,5.6,15.4c-0.6,9.6-8.7,15.8-24.9,15.8c-5.7,0-11.6-0.5-17.7-1.6c0.2,5.5,1.3,9.3,3,11.5
				c1.8,2.2,4.9,3.3,9.5,3.3c4.5,0,8.3-0.5,11.3-1.5s5.4-2,7.2-3c1.8-1,3.4-1.5,4.6-1.5c1.3,0,3.4-1.4,4.3-0.3
				c2,0.8,1.8-0.1,2.3,7.8c0.2,2.6-1.7,4.7-2.8,5.6c-1,1-2.7,1.9-4.9,2.8c-7.9,3.3-19,5-33.5,5c-12,0-21.8-2.9-29.6-8.6
				c-7.7-5.7-11.6-13.5-11.6-23.2c0-4.7,0.9-9,2.6-13c1.7-3.9,4-7.2,6.9-9.8C488.4,41.2,491.7,38.9,495.5,37.1z M524.3,45.9
				c-5,0-7.8,4.1-8.2,12.3c4,0.3,6,0.5,6.2,0.5c5.5,0,8.2-1.8,8.2-5.5C530.5,48.4,528.4,45.9,524.3,45.9z"/>
		</g>
		<g>
			<path class="st1" d="M515.5,94.5c-12.2,0-22.4-3-30.2-8.8c-8-5.9-12.1-14.1-12.1-24.2c0-4.8,0.9-9.4,2.7-13.4
				c1.8-4.1,4.2-7.5,7.2-10.2s6.4-5,10.3-6.9c3.9-1.9,7.9-3.3,12-4.1c4.1-0.8,9.2-1.3,15.1-1.3c6,0,11.8,0.7,17.2,2.2
				c5.5,1.5,9.7,3.6,12.5,6.2c4.9,4.8,7.3,10.4,7.3,16.8c0,10.3-8.6,15.5-25.4,15.5c-5.3,0-10.8-0.5-16.5-1.4
				c0.3,4.4,1.2,7.6,2.7,9.4c1.5,1.9,4.4,2.9,8.6,2.9c4.4,0,8.1-0.5,10.9-1.4c2.9-1,5.2-2,7-2.9c2-1.1,3.7-1.7,5.2-1.7
				c1.6,0,3,0.7,4.2,2.1c1.6,1.7,2.4,4,2.4,6.9c0,3-0.6,5-1.9,6.2c-1.1,1.1-2.9,2-5.2,3C541.5,92.8,530.1,94.5,515.5,94.5z
				 M515.8,52.2c4.2,0.3,4.9,0.4,5,0.4c7,0,7-3.1,7-4.3c0-5.5-2.7-6.2-5-6.2C521.2,42.1,516.6,42.1,515.8,52.2z"/>
			<path class="st0" d="M520.6,26.8c5.9,0,11.5,0.7,16.9,2.2c5.4,1.4,9.4,3.4,12,5.9c4.6,4.5,6.9,9.9,6.9,16
				c0,9.6-8.1,14.4-24.3,14.4c-5.7,0-11.6-0.5-17.7-1.6c0.2,5.5,1.3,9.3,3,11.5c1.8,2.2,4.9,3.3,9.5,3.3c4.5,0,8.3-0.5,11.3-1.5
				s5.4-2,7.2-3c1.8-1,3.4-1.5,4.6-1.5c1.3,0,2.4,0.6,3.3,1.7c1.4,1.5,2.1,3.5,2.1,6.1s-0.5,4.4-1.5,5.3c-1,1-2.7,1.9-4.9,2.8
				c-7.9,3.3-19,5-33.5,5c-12,0-21.8-2.9-29.6-8.6c-7.7-5.7-11.6-13.5-11.6-23.2c0-4.7,0.9-9,2.6-13c1.7-3.9,4-7.2,6.9-9.8
				c2.9-2.6,6.2-4.8,10-6.7c3.8-1.9,7.7-3.2,11.7-4C509.7,27.2,514.6,26.8,520.6,26.8 M520.7,53.7c5.5,0,8.2-1.8,8.2-5.5
				c0-4.9-2.1-7.3-6.2-7.3c-5,0-7.8,4.1-8.2,12.3C518.5,53.5,520.6,53.7,520.7,53.7 M520.6,24.5c-6,0-11.2,0.4-15.3,1.3
				c-4.2,0.9-8.3,2.3-12.3,4.2c-4,1.9-7.5,4.3-10.6,7c-3.1,2.8-5.6,6.4-7.5,10.6s-2.8,8.9-2.8,13.9c0,10.5,4.2,18.9,12.5,25.1
				c8.1,6,18.5,9.1,30.9,9.1c14.7,0,26.3-1.7,34.4-5.1c2.5-1,4.3-2.1,5.6-3.2c1.5-1.4,2.3-3.7,2.3-7c0-3.2-0.9-5.7-2.7-7.6
				c-1.7-2.1-3.7-2.5-5-2.5c-1.7,0-3.6,0.6-5.8,1.8c-1.7,1-4,1.9-6.8,2.9c-2.7,0.9-6.3,1.4-10.6,1.4c-3.8,0-6.4-0.8-7.7-2.5
				c-0.8-1-1.8-3.2-2.3-7.4c5.2,0.8,10.3,1.2,15.2,1.2c8.6,0,14.9-1.3,19.4-3.9c4.8-2.8,7.2-7.1,7.2-12.8c0-6.7-2.6-12.7-7.6-17.6
				l0,0l0,0c-2.9-2.7-7.3-4.9-13-6.4C532.5,25.3,526.6,24.5,520.6,24.5L520.6,24.5z M517,51.1c0.9-7.9,4.4-7.9,5.7-7.9
				c1.9,0,3.9,0.4,3.9,5c0,0.9,0,3.1-5.8,3.2C520.6,51.4,520,51.4,517,51.1L517,51.1z"/>
		</g>
	</g>
	<g>
		<g>
			<path class="st0" d="M107.9,38.2c3.8-1.9,7.7-3.2,11.7-4s9-1.2,14.9-1.2s11.5,0.7,16.9,2.2c5.4,1.4,11.3,2.6,13.9,5.1
				c4.6,4.5,6.1,7.4,5.6,15.4c-0.6,9.6-8.7,15.8-24.9,15.8c-5.7,0-11.6-0.5-17.7-1.6c0.2,5.5,1.3,9.3,3,11.5
				c1.8,2.2,4.9,3.3,9.5,3.3c4.5,0,8.3-0.5,11.3-1.5s5.4-2,7.2-3s3.4-1.5,4.6-1.5c1.3,0,3.4-1.4,4.3-0.3c2,0.8,1.8-0.1,2.3,7.8
				c0.2,2.6-1.7,4.7-2.8,5.6c-1,1-2.7,1.9-4.9,2.8c-7.9,3.3-19,5-33.5,5c-12,0-21.8-2.9-29.6-8.6C92,85.3,88.1,77.5,88.1,67.8
				c0-4.7,0.9-9,2.6-13c1.7-3.9,4-7.2,6.9-9.8C100.8,42.3,104.1,40,107.9,38.2z M136.7,47c-5,0-7.8,4.1-8.2,12.3
				c4,0.3,6,0.5,6.2,0.5c5.5,0,8.2-1.8,8.2-5.5C142.9,49.5,140.8,47,136.7,47z"/>
		</g>
		<g>
			<path class="st1" d="M127.9,95.6c-12.2,0-22.4-3-30.2-8.8c-8-5.9-12.1-14.1-12.1-24.2c0-4.8,0.9-9.4,2.7-13.4
				c1.8-4.1,4.2-7.5,7.2-10.2s6.4-5,10.3-6.9c3.9-1.9,7.9-3.3,12-4.1c4.1-0.8,9.2-1.3,15.1-1.3c6,0,11.8,0.7,17.2,2.2
				c5.5,1.5,9.7,3.6,12.5,6.2c4.9,4.8,7.3,10.4,7.3,16.8c0,10.3-8.6,15.5-25.4,15.5c-5.3,0-10.8-0.5-16.5-1.4
				c0.3,4.4,1.2,7.6,2.7,9.4c1.5,1.9,4.4,2.9,8.6,2.9c4.4,0,8.1-0.5,10.9-1.4c2.9-1,5.2-2,7-2.9c2-1.1,3.7-1.7,5.2-1.7
				c1.6,0,3,0.7,4.2,2.1c1.6,1.7,2.4,4,2.4,6.9c0,3-0.6,5-1.9,6.2c-1.1,1.1-2.9,2-5.2,3C153.9,93.9,142.5,95.6,127.9,95.6z
				 M128.2,53.3c4.3,0.4,4.9,0.4,5,0.4c7,0,7-3.1,7-4.3c0-5.5-2.7-6.2-5-6.2C133.6,43.2,129,43.2,128.2,53.3z"/>
			<path class="st0" d="M133,27.9c5.9,0,11.5,0.7,16.9,2.2c5.4,1.4,9.4,3.4,12,5.9c4.6,4.5,6.9,9.9,6.9,16c0,9.6-8.1,14.4-24.3,14.4
				c-5.7,0-11.6-0.5-17.7-1.6c0.2,5.5,1.3,9.3,3,11.5c1.8,2.2,4.9,3.3,9.5,3.3c4.5,0,8.3-0.5,11.3-1.5s5.4-2,7.2-3s3.4-1.5,4.6-1.5
				c1.3,0,2.4,0.6,3.3,1.7c1.4,1.5,2.1,3.5,2.1,6.1s-0.5,4.4-1.5,5.3c-1,1-2.7,1.9-4.9,2.8c-7.9,3.3-19,5-33.5,5
				c-12,0-21.8-2.9-29.6-8.6c-7.7-5.7-11.6-13.5-11.6-23.2c0-4.7,0.9-9,2.6-13c1.7-3.9,4-7.2,6.9-9.8c2.9-2.6,6.2-4.8,10-6.7
				c3.8-1.9,7.7-3.2,11.7-4C122.1,28.3,127.1,27.9,133,27.9 M133.2,54.8c5.5,0,8.2-1.8,8.2-5.5c0-4.9-2.1-7.3-6.2-7.3
				c-5,0-7.8,4.1-8.2,12.3C130.9,54.6,133,54.8,133.2,54.8 M133,25.6c-6,0-11.2,0.4-15.3,1.3c-4.2,0.9-8.3,2.3-12.3,4.2
				c-4,1.9-7.5,4.3-10.6,7c-3.1,2.8-5.6,6.4-7.5,10.6s-2.8,8.9-2.8,13.9c0,10.5,4.2,18.9,12.5,25.1c8.1,6,18.5,9.1,30.9,9.1
				c14.7,0,26.3-1.7,34.4-5.1c2.5-1,4.3-2.1,5.6-3.2c1.5-1.4,2.3-3.7,2.3-7c0-3.2-0.9-5.7-2.7-7.6c-1.7-2.1-3.7-2.5-5-2.5
				c-1.7,0-3.6,0.6-5.8,1.8c-1.7,1-4,1.9-6.8,2.9c-2.7,0.9-6.3,1.4-10.6,1.4c-3.8,0-6.4-0.8-7.7-2.5c-0.8-1-1.8-3.2-2.3-7.4
				c5.2,0.8,10.3,1.2,15.2,1.2c8.6,0,14.9-1.3,19.4-3.9c4.8-2.8,7.2-7.1,7.2-12.8c0-6.7-2.6-12.7-7.6-17.6l0,0l0,0
				c-2.9-2.7-7.3-4.9-13-6.4C144.9,26.4,139,25.6,133,25.6L133,25.6z M129.4,52.2c0.9-7.9,4.4-7.9,5.7-7.9c1.9,0,3.9,0.4,3.9,5
				c0,0.9,0,3.1-5.8,3.2C133,52.5,132.4,52.5,129.4,52.2L129.4,52.2z"/>
		</g>
	</g>
	<g>
		<g>
			<path class="st0" d="M647.1,36.9c3.8-1.9,7.7-3.2,11.7-4s9-1.2,14.9-1.2s11.5,0.7,16.9,2.2c5.4,1.4,11.3,2.6,13.9,5.1
				c4.6,4.5,6.1,7.4,5.6,15.4c-0.6,9.6-8.7,15.8-24.9,15.8c-5.7,0-11.6-0.5-17.7-1.6c0.2,5.5,1.3,9.3,3,11.5
				c1.8,2.2,4.9,3.3,9.5,3.3c4.5,0,8.3-0.5,11.3-1.5s5.4-2,7.2-3c1.8-1,3.4-1.5,4.6-1.5c1.3,0,3.4-1.4,4.3-0.3
				c2,0.8,1.8-0.1,2.3,7.8c0.2,2.6-1.7,4.7-2.8,5.6c-1,1-2.7,1.9-4.9,2.8c-7.9,3.3-19,5-33.5,5c-12,0-21.8-2.9-29.6-8.6
				c-7.7-5.7-11.6-13.5-11.6-23.2c0-4.7,0.9-9,2.6-13c1.7-3.9,4-7.2,6.9-9.8C639.9,41,643.3,38.8,647.1,36.9z M675.8,45.8
				c-5,0-7.8,4.1-8.2,12.3c4,0.3,6,0.5,6.2,0.5c5.5,0,8.2-1.8,8.2-5.5C682,48.2,680,45.8,675.8,45.8z"/>
		</g>
		<g>
			<path class="st1" d="M667.1,94.4c-12.2,0-22.4-3-30.2-8.8c-8-5.9-12.1-14.1-12.1-24.2c0-4.8,0.9-9.4,2.7-13.4
				c1.8-4.1,4.2-7.5,7.2-10.2s6.4-5,10.3-6.9s7.9-3.3,12-4.1c4.1-0.8,9.2-1.3,15.1-1.3c6,0,11.8,0.7,17.2,2.2
				c5.5,1.5,9.7,3.6,12.5,6.2c4.9,4.8,7.3,10.4,7.3,16.8c0,10.3-8.6,15.5-25.4,15.5c-5.3,0-10.8-0.5-16.5-1.4
				c0.3,4.4,1.2,7.6,2.7,9.4c1.5,1.9,4.4,2.9,8.6,2.9c4.4,0,8.1-0.5,10.9-1.4c2.9-1,5.2-2,7-2.9c2-1.1,3.7-1.7,5.2-1.7
				c1.6,0,3,0.7,4.2,2.1c1.6,1.7,2.4,4,2.4,6.9c0,3-0.6,5-1.9,6.2c-1.2,1.1-2.9,2-5.2,3C693.1,92.7,681.6,94.4,667.1,94.4z
				 M667.3,52c4.3,0.4,4.9,0.4,5,0.4c7,0,7-3.1,7-4.3c0-5.5-2.7-6.2-5-6.2C672.7,41.9,668.2,41.9,667.3,52z"/>
			<path class="st0" d="M672.1,26.7c5.9,0,11.5,0.7,16.9,2.2c5.4,1.4,9.4,3.4,12,5.9c4.6,4.5,6.9,9.9,6.9,16
				c0,9.6-8.1,14.4-24.3,14.4c-5.7,0-11.6-0.5-17.7-1.6c0.2,5.5,1.3,9.3,3,11.5c1.8,2.2,4.9,3.3,9.5,3.3c4.5,0,8.3-0.5,11.3-1.5
				s5.4-2,7.2-3c1.8-1,3.4-1.5,4.6-1.5c1.3,0,2.4,0.6,3.3,1.7c1.4,1.5,2.1,3.5,2.1,6.1s-0.5,4.4-1.5,5.3c-1,1-2.7,1.9-4.9,2.8
				c-7.9,3.3-19,5-33.5,5c-12,0-21.8-2.9-29.6-8.6c-7.7-5.7-11.6-13.5-11.6-23.2c0-4.7,0.9-9,2.6-13c1.7-3.9,4-7.2,6.9-9.8
				c2.9-2.6,6.2-4.8,10-6.7c3.8-1.9,7.7-3.2,11.7-4C661.3,27.1,666.2,26.7,672.1,26.7 M672.3,53.6c5.5,0,8.2-1.8,8.2-5.5
				c0-4.9-2.1-7.3-6.2-7.3c-5,0-7.8,4.1-8.2,12.3C670.1,53.4,672.1,53.6,672.3,53.6 M672.1,24.4c-6,0-11.2,0.4-15.3,1.3
				c-4.2,0.9-8.3,2.3-12.3,4.2c-4,1.9-7.5,4.3-10.6,7c-3.1,2.8-5.6,6.4-7.5,10.6s-2.8,8.9-2.8,13.9c0,10.5,4.2,18.9,12.5,25.1
				c8.1,6,18.5,9.1,30.9,9.1c14.7,0,26.3-1.7,34.4-5.1c2.5-1,4.3-2.1,5.6-3.2c1.5-1.4,2.3-3.7,2.3-7c0-3.2-0.9-5.7-2.7-7.6
				c-1.7-2.1-3.7-2.5-5-2.5c-1.7,0-3.6,0.6-5.8,1.8c-1.7,1-4,1.9-6.8,2.9c-2.7,0.9-6.3,1.4-10.6,1.4c-3.8,0-6.4-0.8-7.7-2.5
				c-0.8-1-1.8-3.2-2.3-7.4c5.2,0.8,10.3,1.2,15.2,1.2c8.6,0,14.9-1.3,19.4-3.9c4.8-2.8,7.2-7.1,7.2-12.8c0-6.7-2.6-12.7-7.6-17.6
				l0,0l0,0c-2.9-2.7-7.3-4.9-13-6.4C684.1,25.1,678.2,24.4,672.1,24.4L672.1,24.4z M668.6,51c0.9-7.9,4.3-7.9,5.7-7.9
				c1.9,0,3.9,0.4,3.9,5c0,0.9,0,3.1-5.8,3.2C672.2,51.3,671.5,51.2,668.6,51L668.6,51z"/>
		</g>
	</g>
	<g>
		<g>
			<path class="st0" d="M33.7,80.9c0-2.3-1-4.1-2.9-5.5c-1.9-1.3-4.3-2.3-7.1-3c-2.8-0.7-4.9-1.5-8-2.7c-3.2-1.3-9.6-5.4-10.9-8.5
				c0,0-1.8-1.9-1.8-5.8C3,40,17.2,32.5,41.1,32.5c10.2,0,18.5,1.7,24.7,5.2c2,1.1,4.4,0.3,5.2,1.3s0.5,0.7,0.7,3.1
				c0.4,3.7-1.8,8.1-2.7,9.3c-1,1.2-2.6,1.4-3.5,1.2c-1.3-0.2-1.6-0.6-4.8-2.4c-3.2-1.9-6.5-2.8-9.9-2.9c-2.7,0-4.1,1.4-4.1,4.1
				c0,1.8,0.9,3.3,2.9,4.3c1.9,1.1,4.2,2,6.9,2.8c2.7,0.8,5.5,1.7,8.2,2.9c2.7,1.1,10.2,6.4,10.2,6.4l0.4,5.4
				c0,16.3-12.7,26.7-36.6,26.7c-11.7,0-21.2-1.7-28.5-5.1C8,93.9,6.5,92.9,5.4,92c-1.6-1.2-4.7-3.8-4.7-6.3s3.7-3.2,4.7-4.3
				c1-1.1,1.9-1.6,2.6-1.6s3.1,0.9,7.1,2.7c4,1.8,8.1,2.7,12.3,2.7C31.6,85.2,33.7,83.8,33.7,80.9z"/>
		</g>
		<g>
			<path class="st1" d="M37.3,96c-11.8,0-21.5-1.7-29-5.2c-2.3-1-4-1.9-5.1-3c-1.2-1.2-1.8-3.2-1.8-6c0-2.9,0.6-4.9,1.9-6.2
				c1.3-1.3,2.4-2,3.4-2c0.7,0,2.1,0.3,7.6,2.8c3.9,1.7,7.8,2.6,11.8,2.6c5,0,5-2.2,5-3.2c0-1.9-0.8-3.4-2.4-4.5
				c-1.8-1.2-4.1-2.2-6.7-2.9c-2.8-0.7-5.6-1.5-8.5-2.5c-3-1-5.6-2.8-7.6-5.3C3.8,58,2.7,54.7,2.7,50.5c0-16.1,12.4-24.2,37-24.2
				c10.4,0,18.9,1.8,25.2,5.4c2.1,1.1,3.6,2.2,4.5,3.3c1,1.2,1.5,3.1,1.5,5.8c0,2.7-0.6,4.7-1.7,6.1c-1.2,1.5-2.4,2.2-3.8,2.2
				c-0.8,0-2.3-0.3-6.8-2.9c-3-1.8-6.1-2.7-9.3-2.8c-2.1,0-2.9,0.9-2.9,2.9c0,1.4,0.7,2.5,2.3,3.3c1.8,1,4.1,1.9,6.7,2.7
				c2.8,0.8,5.6,1.8,8.3,2.9c2.9,1.2,5.4,3.2,7.4,6s3.1,6.3,3.1,10.5C74.2,87.9,61.8,96,37.3,96z"/>
			<path class="st0" d="M39.6,27.6c10.2,0,18.5,1.7,24.7,5.2c2,1.1,3.4,2.1,4.2,3c0.8,1,1.2,2.6,1.2,5s-0.5,4.2-1.4,5.4
				c-1,1.2-1.9,1.8-2.9,1.8s-3-0.9-6.2-2.8s-6.5-2.8-9.9-2.9c-2.7,0-4.1,1.4-4.1,4.1c0,1.8,0.9,3.3,2.9,4.3c1.9,1.1,4.2,2,6.9,2.8
				c2.7,0.8,5.5,1.7,8.2,2.9c2.7,1.1,5,3,6.9,5.6s2.9,5.9,2.9,9.9C73,87.3,61.1,95,37.2,95C25.5,95,16,93.3,8.7,89.9
				c-2.2-0.9-3.8-1.8-4.8-2.8c-1-0.9-1.5-2.7-1.5-5.2s0.5-4.3,1.5-5.4s1.9-1.6,2.6-1.6s3.1,0.9,7.1,2.7c4,1.8,8.1,2.7,12.3,2.7
				c4.1,0,6.2-1.4,6.2-4.3c0-2.3-1-4.1-2.9-5.5c-1.9-1.3-4.3-2.3-7.1-3c-2.8-0.7-5.6-1.5-8.4-2.5c-2.8-0.9-5.2-2.6-7.1-5
				s-2.9-5.5-2.9-9.4C3.8,35.2,15.7,27.6,39.6,27.6 M39.6,25.3c-12.3,0-21.8,2.1-28.1,6.1c-6.6,4.3-10,10.7-10,19.2
				c0,4.4,1.2,8.1,3.4,10.8c2.2,2.7,5,4.6,8.2,5.7c2.9,1,5.7,1.8,8.5,2.5c2.5,0.6,4.6,1.5,6.3,2.7c1.3,0.9,1.9,2,1.9,3.6
				c0,0.7,0,2-3.9,2c-3.8,0-7.6-0.8-11.3-2.5c-6-2.7-7.3-2.9-8.1-2.9c-1.4,0-2.7,0.7-4.3,2.3c-1.5,1.5-2.2,3.8-2.2,7
				s0.7,5.5,2.2,6.9c1.2,1.2,3,2.2,5.5,3.2c7.6,3.5,17.5,5.3,29.4,5.3c12.3,0,21.8-2.1,28.1-6.1c6.6-4.3,10-10.7,10-19.2
				c0-4.4-1.1-8.2-3.3-11.2c-2.1-2.9-4.8-5.1-7.9-6.4c-2.8-1.1-5.6-2.1-8.4-2.9c-2.5-0.7-4.7-1.6-6.4-2.6c-1.5-0.8-1.7-1.7-1.7-2.3
				c0-1.4,0.3-1.8,1.8-1.8c3,0.1,5.9,1,8.7,2.6c4.7,2.7,6.3,3.1,7.4,3.1c1.7,0,3.2-0.9,4.7-2.7c1.3-1.6,1.9-3.9,1.9-6.8
				c0-3-0.6-5.1-1.8-6.5c-1-1.2-2.6-2.3-4.9-3.6C58.9,27.1,50.2,25.3,39.6,25.3L39.6,25.3z"/>
		</g>
	</g>
	<g>
		<path class="st0" d="M349.7,65c-11.8,0-25.5,7.2-25.5,17.5s13.7,20.4,25.5,20c10.5-0.4,22.7-7.8,21.4-23.5
			C370.3,68.7,361.6,65,349.7,65z M342.7,94.7c-3.1,0-5.6-2.2-5.6-4.9c0-2.7,2.5-4.9,5.6-4.9s5.6,2.2,5.6,4.9
			C348.3,92.5,345.8,94.7,342.7,94.7z M342.7,82.5c-3.1,0-5.6-2.2-5.6-4.9s2.5-4.9,5.6-4.9s5.6,2.2,5.6,4.9S345.8,82.5,342.7,82.5z
			 M356.7,94.7c-3.1,0-5.6-2.2-5.6-4.9c0-2.7,2.5-4.9,5.6-4.9s5.6,2.2,5.6,4.9C362.2,92.5,359.8,94.7,356.7,94.7z M356.7,82.5
			c-3.1,0-5.6-2.2-5.6-4.9s2.5-4.9,5.6-4.9s5.6,2.2,5.6,4.9S359.8,82.5,356.7,82.5z"/>
	</g>
	<g>
		<g>
			<path class="st2" d="M347.7,99.1c-12.5,0-22.6-8.9-22.6-19.9s10.1-19.9,22.6-19.9s22.6,8.9,22.6,19.9S360.2,99.1,347.7,99.1z
				 M354.7,81.6c-2.4,0-4.4,1.7-4.4,3.7s2,3.7,4.4,3.7s4.4-1.7,4.4-3.7S357.1,81.6,354.7,81.6z M340.7,81.6c-2.4,0-4.4,1.7-4.4,3.7
				s2,3.7,4.4,3.7s4.4-1.7,4.4-3.7S343.2,81.6,340.7,81.6z M354.7,69.4c-2.4,0-4.4,1.7-4.4,3.7s2,3.7,4.4,3.7s4.4-1.7,4.4-3.7
				S357.1,69.4,354.7,69.4z M340.7,69.4c-2.4,0-4.4,1.7-4.4,3.7s2,3.7,4.4,3.7s4.4-1.7,4.4-3.7S343.2,69.4,340.7,69.4z"/>
		</g>
		<g>
			<path class="st0" d="M347.7,60.5c11.8,0,21.4,8.4,21.4,18.8s-9.6,18.8-21.4,18.8c-11.8,0-21.4-8.4-21.4-18.8
				S335.9,60.5,347.7,60.5 M354.7,78c3.1,0,5.6-2.2,5.6-4.9s-2.5-4.9-5.6-4.9s-5.6,2.2-5.6,4.9S351.6,78,354.7,78 M340.7,78
				c3.1,0,5.6-2.2,5.6-4.9s-2.5-4.9-5.6-4.9s-5.6,2.2-5.6,4.9S337.7,78,340.7,78 M354.7,90.2c3.1,0,5.6-2.2,5.6-4.9
				s-2.5-4.9-5.6-4.9s-5.6,2.2-5.6,4.9S351.6,90.2,354.7,90.2 M340.7,90.2c3.1,0,5.6-2.2,5.6-4.9s-2.5-4.9-5.6-4.9s-5.6,2.2-5.6,4.9
				S337.7,90.2,340.7,90.2 M347.7,58.2c-13.1,0-23.7,9.4-23.7,21.1s10.6,21.1,23.7,21.1s23.7-9.4,23.7-21.1S360.8,58.2,347.7,58.2
				L347.7,58.2z M354.7,75.7c-1.8,0-3.3-1.2-3.3-2.6s1.5-2.6,3.3-2.6s3.3,1.2,3.3,2.6S356.4,75.7,354.7,75.7L354.7,75.7z
				 M340.7,75.7c-1.8,0-3.3-1.2-3.3-2.6s1.5-2.6,3.3-2.6s3.3,1.2,3.3,2.6S342.5,75.7,340.7,75.7L340.7,75.7z M354.7,87.9
				c-1.8,0-3.3-1.2-3.3-2.6s1.5-2.6,3.3-2.6s3.3,1.2,3.3,2.6S356.4,87.9,354.7,87.9L354.7,87.9z M340.7,87.9c-1.8,0-3.3-1.2-3.3-2.6
				s1.5-2.6,3.3-2.6s3.3,1.2,3.3,2.6S342.5,87.9,340.7,87.9L340.7,87.9z"/>
		</g>
	</g>
</g>
</svg>
